<svg width="27" height="17" viewBox="0 0 27 17" fill="none" xmlns="http://www.w3.org/2000/svg">
<path fill-rule="evenodd" clip-rule="evenodd" d="M6.4336 16.4874C3.19643 15.424 0.843155 12.1635 0.913597 8.74684C0.753243 4.52489 4.45165 0.623302 8.67785 0.573037C10.8318 0.38932 12.927 1.22578 14.5575 2.59003C13.8892 3.32489 13.2088 4.05197 12.4817 4.73233C11.0467 3.86047 9.31891 3.19605 7.64174 3.78613C4.93696 4.55605 3.29873 7.75003 4.29944 10.3968C5.12846 13.1606 8.49023 14.6775 11.1249 13.5164C12.4895 13.0279 13.3886 11.7691 13.7833 10.4166C13.0814 10.4024 12.3795 10.3986 11.6775 10.3948C10.8157 10.3902 9.954 10.3855 9.09236 10.3617L9.09187 10.2458C9.08813 9.35447 9.08439 8.46609 9.08846 7.57445C9.37773 7.57402 9.66704 7.57354 9.95639 7.57306C12.2753 7.56921 14.5969 7.56536 16.9186 7.58613C17.0789 9.86507 16.7423 12.3044 15.2609 14.1341C13.2318 16.7454 9.4828 17.5118 6.4336 16.4874ZM21.999 5.39216L22.0007 5.22826C22.7745 5.22826 23.5486 5.22826 24.3263 5.22861C24.3285 5.6173 24.3314 6.00705 24.3343 6.39684C24.3372 6.78696 24.3401 7.17712 24.3423 7.56631C25.1162 7.57406 25.894 7.57795 26.6676 7.58182L26.68 7.58189V9.9118L24.3423 9.92348C24.3352 10.6037 24.3316 11.2807 24.328 11.96C24.3274 12.0617 24.3269 12.1633 24.3263 12.2651C23.8076 12.2625 23.2887 12.2633 22.7709 12.2642C22.5124 12.2646 22.2542 12.2651 21.9964 12.2651C21.9925 11.8746 21.9906 11.4852 21.9886 11.0962C21.9867 10.7063 21.9848 10.3169 21.9809 9.92737C21.2067 9.91927 20.4283 9.91537 19.6538 9.9115L19.6432 9.91144V7.58153C20.4212 7.57764 21.1989 7.57374 21.9809 7.56596C21.9845 6.84285 21.9918 6.11607 21.999 5.39216Z" fill="#CDCED6"/>
</svg>
